HIERARCHY
ROOT Hips
{
 OFFSET 0.000000 0.000000 0.000000
 CHANNELS 6 Xposition Yposition Zposition Yrotation Xrotation Zrotation
 JOINT Chest
 {
  OFFSET 0.000000 10.080317 -0.001081
  CHANNELS 3 Yrotation Xrotation Zrotation
  JOINT Chest2
  {
   OFFSET 0.000000 11.096852 0.001963
   CHANNELS 3 Yrotation Xrotation Zrotation
   JOINT Chest3
   {
    OFFSET 0.000000 10.026525 0.000000
    CHANNELS 3 Yrotation Xrotation Zrotation
    JOINT Chest4
    {
     OFFSET 0.000000 10.026525 0.000000
     CHANNELS 3 Yrotation Xrotation Zrotation
     JOINT Neck
     {
      OFFSET 0.000000 14.108171 0.000000
      CHANNELS 3 Yrotation Xrotation Zrotation
      JOINT Head
      {
       OFFSET 0.000000 9.333493 0.004668
       CHANNELS 3 Yrotation Xrotation Zrotation
       End Site
       {
        OFFSET 0.000000 17.851786 0.002438
       }
      }
     }
     JOINT RightCollar
     {
      OFFSET -3.071622 7.873185 0.000000
      CHANNELS 3 Yrotation Xrotation Zrotation
      JOINT RightShoulder
      {
       OFFSET -14.378659 0.000000 0.000000
       CHANNELS 3 Yrotation Xrotation Zrotation
       JOINT RightElbow
       {
        OFFSET -30.778728 0.000000 0.000000
        CHANNELS 3 Yrotation Xrotation Zrotation
        JOINT RightWrist
        {
         OFFSET -25.164217 0.000000 0.000000
         CHANNELS 3 Yrotation Xrotation Zrotation
         End Site
         {
          OFFSET -18.796788 0.000000 0.000000
         }
        }
       }
      }
     }
     JOINT LeftCollar
     {
      OFFSET 3.071622 7.873185 0.000000
      CHANNELS 3 Yrotation Xrotation Zrotation
      JOINT LeftShoulder
      {
       OFFSET 14.378659 0.000000 0.000000
       CHANNELS 3 Yrotation Xrotation Zrotation
       JOINT LeftElbow
       {
        OFFSET 30.778728 0.000000 0.000000
        CHANNELS 3 Yrotation Xrotation Zrotation
        JOINT LeftWrist
        {
         OFFSET 25.164217 0.000000 0.000000
         CHANNELS 3 Yrotation Xrotation Zrotation
         End Site
         {
          OFFSET 18.796788 0.000000 0.000000
         }
        }
       }
      }
     }
    }
   }
  }
 }
 JOINT RightHip
 {
  OFFSET -8.194923 0.005295 0.000540
  CHANNELS 3 Yrotation Xrotation Zrotation
  JOINT RightKnee
  {
   OFFSET 0.000000 -42.473320 -0.000511
   CHANNELS 3 Yrotation Xrotation Zrotation
   JOINT RightAnkle
   {
    OFFSET 0.000000 -41.474259 -0.000865
    CHANNELS 3 Yrotation Xrotation Zrotation
    JOINT RightToe
    {
     OFFSET 0.000000 -7.354994 16.712725
     CHANNELS 3 Yrotation Xrotation Zrotation
     End Site
     {
      OFFSET 0.000000 -1.553903 6.764158
     }
    }
   }
  }
 }
 JOINT LeftHip
 {
  OFFSET 8.194923 0.005295 0.000540
  CHANNELS 3 Yrotation Xrotation Zrotation
  JOINT LeftKnee
  {
   OFFSET 0.000000 -42.473320 -0.000511
   CHANNELS 3 Yrotation Xrotation Zrotation
   JOINT LeftAnkle
   {
    OFFSET 0.000000 -41.474259 -0.000865
    CHANNELS 3 Yrotation Xrotation Zrotation
    JOINT LeftToe
    {
     OFFSET 0.000000 -7.354994 16.712725
     CHANNELS 3 Yrotation Xrotation Zrotation
     End Site
     {
      OFFSET 0.000000 -1.553903 6.764158
     }
    }
   }
  }
 }
}
MOTION
Frames: 12
Frame Time: 0.016667
-38.264007 78.179628 118.257615 13.703857 12.422359 -1.419978 7.095412 12.277196 1.754557 4.243232 5.584408 0.332443 4.243232 5.584408 0.332443 3.176854 4.190851 0.210264 -6.937769 10.599597 7.153900 -16.499881 -14.968383 16.821886 11.331112 -17.665531 -1.000100 3.987697 -29.353344 4.932386 84.779344 4.478963 8.833691 5.708596 1.261937 -1.896764 -27.267322 -25.884864 4.151268 -42.094230 -61.626555 -43.402080 -103.023343 -7.639881 -38.918378 0.040646 12.009227 20.234124 -34.818049 -27.259645 -0.413790 -35.122959 60.801074 -39.628874 -18.767135 -24.071316 18.829924 2.429728 -0.646463 4.967359 -26.821239 -56.300829 22.709671 -25.780779 40.190999 -15.882412 -1.325008 -1.561529 -9.840082 -2.366041 1.410896 -0.749258
-37.909070 78.896537 118.485048 11.888291 11.943451 -2.037173 5.934131 12.181671 1.438004 4.013951 5.511708 0.219900 4.013951 5.511708 0.219900 3.006149 4.135435 0.128504 -6.302430 10.713412 6.966749 -15.186104 -14.932188 16.175332 11.236876 -17.442187 -0.443847 3.506972 -30.642477 8.234233 87.259400 4.190345 9.204908 5.143130 1.658273 -2.055618 -26.494770 -25.770236 3.991536 -40.806843 -61.556534 -43.027379 -102.842566 -7.706504 -38.464227 0.002753 11.973717 20.105737 -34.252253 -25.873067 -0.469200 -31.369944 59.302634 -35.996888 -18.915816 -23.541827 18.924271 3.178881 -0.743049 7.127955 -26.116050 -54.603714 22.869697 -24.879548 39.783282 -15.233144 0.123373 -2.220738 -9.689297 -3.093434 1.567318 -0.965688
-37.505343 79.662397 118.751434 9.266402 11.266015 -2.591001 5.536619 12.075018 0.978263 3.825802 5.418271 0.126658 3.825802 5.418271 0.126658 2.866083 4.064684 0.060916 -5.697114 10.860619 6.697749 -13.888803 -14.834026 15.378151 10.908429 -17.159318 0.343685 2.926122 -32.107142 11.384364 89.855349 3.874501 9.916903 4.604798 2.074336 -1.916356 -25.728167 -25.498360 3.782953 -39.222209 -61.547808 -43.011100 -102.596831 -7.816172 -38.018628 -0.086126 11.939563 19.988584 -32.678539 -24.425790 -0.825212 -27.852376 57.566379 -32.489710 -18.569169 -22.876610 18.904352 3.511539 -0.815687 8.438045 -24.310724 -52.698408 22.629840 -23.788247 39.185286 -14.538787 0.969251 -2.960525 -9.760435 -3.242726 1.763113 -0.929982
-37.315101 80.408885 119.127094 7.267333 10.069666 -3.475868 4.571024 12.331865 1.098672 3.638593 5.317675 0.040858 3.638593 5.317675 0.040858 2.726626 3.988666 -0.001120 -5.047354 10.991116 6.400418 -12.499123 -14.767349 14.512035 10.104587 -16.968798 1.317597 2.714998 -33.571099 14.656496 92.539650 3.336780 11.143339 4.063464 2.470564 -1.763879 -25.017894 -25.175437 3.541298 -37.234837 -61.559236 -43.089108 -102.231669 -7.930386 -37.559843 -0.162235 11.859266 19.977192 -31.721042 -22.173408 -1.086711 -24.578203 55.524351 -29.179035 -18.795288 -21.737034 18.813270 4.466499 -1.078094 9.514703 -23.317986 -49.997532 22.763869 -22.684463 38.441534 -13.823355 2.276378 -3.608626 -9.682236 -3.894452 1.913077 -1.132271
-37.153726 81.176752 119.447053 4.175731 8.970150 -4.311266 4.450340 12.352437 0.960589 3.417763 5.202745 -0.047114 3.417763 5.202745 -0.047114 2.561960 3.901939 -0.064481 -4.331623 11.158182 6.103481 -10.978094 -14.630049 13.612943 8.951014 -16.732549 2.244442 2.614746 -34.935306 18.350879 95.192193 2.306844 12.667711 3.503738 2.854338 -1.644214 -24.329801 -24.819277 3.352659 -35.080313 -61.452575 -42.921284 -101.708624 -8.132785 -37.001672 -0.315422 11.751719 20.093279 -29.699963 -20.058374 -1.329474 -21.586780 53.162639 -26.043952 -18.347533 -20.981010 18.660948 4.661682 -1.152350 9.877614 -21.060139 -47.506307 22.678656 -21.397485 37.575388 -13.024636 2.404316 -4.314438 -9.936635 -3.486206 2.053981 -0.893623
-37.420217 81.932165 119.742961 0.590921 7.865115 -5.315972 4.823664 12.203423 0.947394 3.207043 5.073159 -0.139180 3.207043 5.073159 -0.139180 2.404866 3.804264 -0.131005 -3.556689 11.442361 5.784114 -9.318620 -14.272476 12.630345 7.595951 -16.163859 3.229976 2.586858 -35.867756 22.236877 97.836888 1.268737 13.887108 2.987278 3.224509 -1.582831 -23.626443 -24.426004 3.288602 -33.016921 -61.202035 -42.547395 -101.162204 -8.152143 -36.208646 -0.472171 11.623559 20.299565 -27.432622 -17.715144 -1.314622 -18.734608 50.424363 -23.112840 -17.416400 -20.554124 18.593419 4.286433 -0.977807 9.663438 -18.503967 -45.016173 22.781533 -20.014829 36.647982 -12.172262 1.619814 -5.002511 -10.383637 -2.198790 2.105362 -0.320136
-37.846730 82.654864 119.914536 -3.371502 7.097789 -6.044455 5.455752 11.605182 0.691265 2.992654 4.926302 -0.215181 2.992654 4.926302 -0.215181 2.244844 3.693779 -0.185467 -2.734415 11.804445 5.398528 -7.537247 -13.765764 11.498244 6.286494 -15.821360 3.968694 2.555369 -35.890568 26.124059 100.424396 0.318742 14.784786 2.583536 3.643992 -1.731760 -22.947195 -23.971972 3.107815 -31.422007 -60.888990 -41.675387 -100.386901 -7.972406 -35.357520 -0.677541 11.530278 20.370700 -24.760231 -15.759486 -1.353667 -16.255204 47.425835 -20.394664 -16.008644 -20.506895 18.597499 3.329514 -0.488126 8.922551 -15.635744 -42.922693 22.818857 -18.525909 35.607891 -11.311695 0.753397 -5.351116 -10.782020 -0.872050 1.872188 0.226573
-38.348146 83.342456 120.045452 -7.144053 6.408049 -6.515708 5.823159 10.916270 0.334665 2.773352 4.772453 -0.291133 2.773352 4.772453 -0.291133 2.081088 3.578108 -0.239931 -1.893303 12.201973 4.984681 -5.714533 -13.174831 10.311526 4.939212 -15.810950 4.529425 2.676587 -35.286833 29.730988 102.873739 -0.941197 15.708724 2.313768 3.960814 -1.963413 -22.493036 -23.411571 2.875701 -29.801614 -60.666100 -40.296771 -99.400787 -7.863200 -34.616367 -0.883676 11.488942 20.467321 -22.381769 -13.827567 -1.539875 -14.089858 44.130980 -17.968524 -14.572221 -20.647363 18.684246 2.257983 0.684533 5.855450 -12.913548 -40.898540 22.708918 -17.001806 34.500779 -10.415579 0.414502 -5.346423 -10.984604 -0.122041 1.435976 0.474836
-38.821418 84.006895 120.135980 -10.674258 5.718279 -6.798001 5.837559 10.121040 -0.064656 2.526022 4.588906 -0.355564 2.526022 4.588906 -0.355564 1.896178 3.440282 -0.285539 -1.004354 12.676729 4.539651 -3.793390 -12.422415 9.052680 3.735767 -15.683631 4.919102 2.955742 -34.816823 32.841545 105.101391 -2.583943 17.005526 2.055263 4.258515 -2.279898 -22.061638 -22.726509 2.589218 -27.726799 -60.450541 -38.967534 -98.107181 -7.961795 -34.064018 -1.286272 11.309932 20.590456 -20.160769 -11.877662 -1.855704 -12.236667 40.651612 -15.705890 -13.325792 -20.739304 18.682284 1.374022 1.720784 3.412530 -10.343110 -38.884174 22.479603 -15.470305 33.381895 -9.505451 0.449024 -5.132274 -11.038596 0.177193 0.933445 0.494578
-39.084255 84.797083 120.335572 -13.558601 4.739073 -6.599937 5.203298 9.679744 -0.742394 2.302908 4.407411 -0.413392 2.302908 4.407411 -0.413392 1.729315 3.304059 -0.326534 -0.086299 13.187723 4.082200 -1.825906 -11.577452 7.774151 2.880727 -15.386730 5.275329 3.383357 -34.505833 35.021588 107.355942 -4.413697 18.329852 1.926922 4.509130 -2.635265 -21.636304 -22.040107 2.370097 -25.308024 -60.199740 -37.880391 -96.856087 -7.979227 -33.507103 -1.771750 10.961907 20.739217 -18.628525 -9.647086 -2.742898 -10.405522 37.053847 -13.529891 -12.605902 -20.428375 18.595166 1.088685 2.400040 1.682606 -8.023177 -36.593000 21.836080 -14.114059 32.237720 -8.660391 1.341186 -5.037114 -10.941322 -0.324981 0.761849 0.157794
-39.558704 85.517905 120.572491 -16.955122 3.705981 -6.526046 5.120424 9.218507 -1.197816 2.091393 4.228830 -0.463903 2.091393 4.228830 -0.463903 1.571048 3.170082 -0.362269 0.877513 13.733384 3.605121 0.219096 -10.641834 6.459430 2.289899 -15.207027 5.522916 3.996580 -34.159861 36.548625 109.470974 -6.358970 19.419063 1.812195 4.807943 -3.176661 -21.081975 -21.283438 2.117168 -23.085621 -60.043827 -36.945605 -95.758862 -7.563592 -32.987020 -2.214750 10.862860 20.836339 -16.611275 -7.430546 -3.436114 -8.990172 33.457624 -11.664750 -11.698998 -19.914860 18.449052 0.718046 2.743056 0.276555 -5.562166 -34.235287 21.468275 -12.594814 31.069078 -7.817739 1.885248 -4.843313 -10.952399 -0.460689 0.545467 -0.011293
-39.487361 86.171628 120.887368 -19.713911 2.598700 -6.335543 4.560985 8.978867 -1.595927 1.919729 4.062605 -0.524391 1.919729 4.062605 -0.524391 1.442685 3.045346 -0.405913 1.820189 14.265075 3.166037 2.188622 -9.699985 5.247772 1.748061 -15.239066 5.707893 4.685613 -33.814796 37.905422 111.383923 -8.310582 20.287821 1.690402 5.029659 -3.722990 -20.787247 -20.609763 1.910723 -20.907908 -59.883022 -35.733081 -94.700034 -6.963415 -32.399858 -2.576698 10.806162 20.869464 -15.576722 -5.165799 -4.216526 -7.500923 29.904529 -10.061715 -11.610728 -19.210535 18.306186 1.095320 3.098018 -0.469536 -3.835182 -31.679394 21.217501 -11.209291 29.871063 -7.025447 3.237963 -4.254756 -10.829827 -1.344103 0.102403 -0.510217
